# xmcd CD database file
#
# Track frame offsets:
#	150
#	23047
#	41012
#	55322
#	74510
#	91447
#	104332
#	116982
#	131880
#	148747
#	161942
#	177925
#	190060
#
# Disc length: 2728 seconds
#
# Revision: 0
# Processed by: cddbd v1.5.1PL0 Copyright (c) Steve Scherf et al.
# Submitted via: CDex 1.50
#
DISCID=c70aa60d
DTITLE=Victor Janusz - Hands Solo
DYEAR=2002
DGENRE=Jazz
TTITLE0=Black Coffee
TTITLE1=You Go To My Head
TTITLE2=Just Another Sunday
TTITLE3=How Long Has This Been Goin' On?
TTITLE4=Ain't Misbehavin'
TTITLE5=Eve
TTITLE6=French Kiss
TTITLE7=Never Never Land
TTITLE8=The Way He Makes Me Feel
TTITLE9=Martian Carol
TTITLE10=A Flower Is A Lovesome Thing
TTITLE11=You'd Be So Nice To Come Home To
TTITLE12=Unexpected Song
EXTD=YEAR: 2002
EXTT0=
EXTT1=
EXTT2=
EXTT3=
EXTT4=
EXTT5=
EXTT6=
EXTT7=
EXTT8=
EXTT9=
EXTT10=
EXTT11=
EXTT12=
PLAYORDER=
